<svg xmlns="http://www.w3.org/2000/svg" width="325.379" height="71.513" viewBox="0 0 325.379 71.513"><defs><style>.a,.b{fill:#fff;}.a{font-size:12px;font-family:ArialMT, Arial;}</style></defs><g transform="translate(-34.621 -1702.487)"><text class="a" transform="translate(35 1735)"><tspan x="0" y="11">2020 Sanofi Proprietary Information. All Rights Reserved.</tspan><tspan x="0" y="26">Powered by Mu Sigma</tspan></text><g transform="translate(-29.367 1327.784)"><path class="b" d="M440.756,421.748c4.686.766,7.516-.7,9.554-5.019.745-1.577,1.421-3.2,2.289-4.7a5.583,5.583,0,0,1,5.3-2.808c.795.012,1.091.359,1.254,1.084,1.369,6.106-3.171,12.707-9.385,13.708A11.3,11.3,0,0,1,440.756,421.748Z" transform="translate(-286.636 -26.258)"/><path class="b" d="M185.366,395.195v10.917h-2.245c-.025-.386-.065-.734-.066-1.082,0-3.986.009-7.973-.011-11.96-.005-.953.169-1.8,1.166-2.117,1.03-.322,1.6.344,2.088,1.159,1.817,3.037,3.66,6.057,5.5,9.082.2.323.413.633.775,1.185V391.056h2.2a4.775,4.775,0,0,1,.1.679q.009,6.279,0,12.558c0,.888-.182,1.682-1.2,1.944s-1.535-.34-2-1.107q-3.011-5-6.046-9.986Z" transform="translate(-90.575 -12.3)"/><path class="b" d="M255.125,390.984a7.607,7.607,0,0,1,7.669,7.768,7.733,7.733,0,1,1-7.669-7.768Zm5.335,7.766a5.314,5.314,0,0,0-5.349-5.631,5.441,5.441,0,0,0-5.473,5.555,5.5,5.5,0,0,0,5.455,5.611A5.39,5.39,0,0,0,260.46,398.75Z" transform="translate(-139.48 -12.386)"/><path class="b" d="M126.976,406.209c-2.24.182-2.24.182-2.924-1.715-.9-2.5-.9-2.5-3.6-2.5-3.148,0-3.148,0-4.162,2.709-.668,1.786-.668,1.786-2.891,1.452.285-.757.561-1.491.839-2.226q2.167-5.728,4.332-11.457c.293-.778.636-1.474,1.623-1.483s1.353.68,1.647,1.458q2.438,6.453,4.878,12.9C126.813,405.6,126.874,405.869,126.976,406.209Zm-8.908-6.31h4.279l-2.143-5.864Z" transform="translate(-37.591 -12.391)"/><path class="b" d="M73.707,394.651H71.624c-.8-1.894-2.125-2.653-3.584-1.864a2.638,2.638,0,0,0-1.268,1.77,2.361,2.361,0,0,0,1.117,1.726,22.8,22.8,0,0,0,3.2,1.256c2.11.839,2.982,2.035,2.945,3.984a4.613,4.613,0,0,1-3.1,4.252c-3.546,1.356-7.247-1.34-6.927-4.281h1.952c.958,2.236,1.786,2.822,3.635,2.558A2.481,2.481,0,0,0,71.772,402a2.163,2.163,0,0,0-1.5-2.425c-.952-.391-1.947-.678-2.914-1.037-2.059-.764-2.963-1.992-2.882-3.877a4.316,4.316,0,0,1,3.149-3.919A4.628,4.628,0,0,1,73.707,394.651Z" transform="translate(0 -12.027)"/><path class="b" d="M467.287,382.417c-1.786-2.423-4.123-2.575-6.741-1.794a33.828,33.828,0,0,1-3.921.951,3.675,3.675,0,0,1-4.395-3.024c-.225-1.795,1.4-3.538,3.525-3.784C460.608,374.207,465.473,377.378,467.287,382.417Z" transform="translate(-295.35 0)"/><path class="b" d="M329.468,398.356h6.19v2.016H329.39v6.2h-2.335v-1.151q0-5.914,0-11.828c0-1.671.452-2.13,2.122-2.14,2.138-.013,4.276,0,6.481,0v2.028h-6.192Z" transform="translate(-200.135 -12.736)"/><path class="b" d="M421.684,418.173c1.66,2.143,4.05,2.906,6.39,3.792,1.933.731,2.706,2.292,2.066,3.914a3.2,3.2,0,0,1-4.362,1.679,4.337,4.337,0,0,1-1.4-.884C422,424.338,421.433,421.412,421.684,418.173Z" transform="translate(-272.085 -33.071)"/><path class="b" d="M382.079,406.721H379.97V391.627h2.109Z" transform="translate(-240.392 -12.875)"/></g></g></svg>