<svg xmlns="http://www.w3.org/2000/svg" xmlns:xlink="http://www.w3.org/1999/xlink" width="134" height="22" viewBox="0 0 134 22"><defs><style>.a{fill:none;}.b{clip-path:url(#a);}.c,.e{fill:#fff;}.d{clip-path:url(#b);}.e{fill-rule:evenodd;}.f{clip-path:url(#c);}</style><clipPath id="a"><rect class="a" width="21" height="21"/></clipPath><clipPath id="b"><rect class="a" width="20.061" height="20.164"/></clipPath><clipPath id="c"><rect class="a" width="20" height="20"/></clipPath></defs><g transform="translate(-1481.8 -26.598)"><g class="b" transform="translate(1594.8 27.598)"><path class="c" d="M0,20V17.5c0-2.751,4.5-5,10-5s10,2.25,10,5V20ZM5,5a5,5,0,1,1,5,5A5,5,0,0,1,5,5Z" transform="translate(0 0)"/></g><g class="d" transform="translate(1538.712 28.26)"><path class="e" d="M18.888,17.644h-6.3a2.521,2.521,0,1,1-5.041,0h-6.3A1.211,1.211,0,0,1,.11,16.762a1.345,1.345,0,0,1,.378-1.386A5.074,5.074,0,0,0,2.5,11.342V7.562a7.562,7.562,0,1,1,15.123,0v3.781a5.074,5.074,0,0,0,2.016,4.033,1.193,1.193,0,0,1,.378,1.386A1.211,1.211,0,0,1,18.888,17.644Z" transform="translate(-0.062)"/></g><g class="f" transform="translate(1481.8 26.598)"><path class="c" d="M2.521,8.822a6.24,6.24,0,0,1,6.3-6.3,6.24,6.24,0,0,1,6.3,6.3,6.24,6.24,0,0,1-6.3,6.3A6.24,6.24,0,0,1,2.521,8.822Zm15.5,10.964a1.248,1.248,0,0,0,1.764-1.764l-3.907-3.907a8.629,8.629,0,0,0,1.764-5.293A8.768,8.768,0,0,0,8.822,0,8.768,8.768,0,0,0,0,8.822a8.768,8.768,0,0,0,8.822,8.822,8.629,8.629,0,0,0,5.293-1.764Z"/></g></g></svg>